<svg id="Component_1_1" data-name="Component 1 – 1" xmlns="http://www.w3.org/2000/svg" xmlns:xlink="http://www.w3.org/1999/xlink" width="1920" height="1080" viewBox="0 0 1920 1080">
  <defs>
    <clipPath id="clip-path">
      <rect id="Rectangle_1" data-name="Rectangle 1" width="1920" height="1080" fill="#fff" stroke="#707070" stroke-width="1"/>
    </clipPath>
  </defs>
  <g id="Mask_Group_1" data-name="Mask Group 1" clip-path="url(#clip-path)">
    <path id="Vector_3_3" data-name="Vector 3 3" d="M827.436,426.125C1163.09,111.934,1825.38,153.689,1986.77,0L2157,822.019,12.675,854-34,562.171C215.951,541.969,491.785,740.316,827.436,426.125Z" transform="translate(-46 122)" fill="#00d1ff"/>
    <path id="Vector_2_2" data-name="Vector 2 2" d="M827.436,426.125C1163.09,111.934,1825.38,153.689,1986.77,0L2157,822.019,12.675,854-34,562.171C215.951,541.969,491.785,740.316,827.436,426.125Z" transform="translate(-37 195)" fill="#00bae2"/>
    <path id="Vector_1_1" data-name="Vector 1 1" d="M831.436,426.125C1167.09,111.934,1829.38,153.689,1990.77,0L2161,822.019,16.675,854-30,562.171C219.951,541.969,495.785,740.316,831.436,426.125Z" transform="translate(-42 273)" fill="#009abc"/>
  </g>
</svg>
